<svg id="landscape" xmlns="http://www.w3.org/2000/svg" viewBox="0 0 2384 1614">
  <title>fond2</title>
  <polygon id="fond2" points="2349.94 818.76 2333.09 700 2321.08 784.65 2236.65 684.89 2226.31 612 2218.93 663.96 2213.89 658 2124.04 693.57 2118.28 653 2111.84 698.4 2097.81 703.96 2084.76 612 2070.16 714.9 1860.3 797.99 1855.05 761 1849.18 802.39 1842.7 804.96 1830.22 717 1816.25 815.43 1771.86 833 1698.58 796.11 1684.94 700 1673.12 783.29 1558.17 725.43 1554.57 700 1551.44 722.04 1448.6 670.26 1422.95 560 1400.39 645.99 1264.02 577.34 1196.49 610.66 1192 579 1186.83 615.42 1170.33 623.56 1158.47 540 1144.83 636.14 1098.06 659.22 1093.91 630 1089.14 663.62 1041.76 687 1019.41 609 995.4 709.83 910.95 751.48 898.97 667 885.17 764.19 737.55 837 557.37 697.78 546.33 620 537.48 682.41 521.31 669.91 502.88 540 488.08 644.24 415.32 588.02 408.51 540 403.04 578.53 309.18 506 134.23 685.94 119.2 580 99.03 722.14 65.94 756.18 62.08 729 56.91 765.47 0 824 0 1614 2384 1614 2384 859 2349.94 818.76" style="fill: #7f6a44"/>
</svg>
