<svg id="landscape" xmlns="http://www.w3.org/2000/svg" viewBox="0 0 2384 1614">
  <title>fond4</title>
  <g id="colline">
    <path d="M848.28,1087.73l-160.55,528h53.42l161.28-530.42Q875.36,1086.44,848.28,1087.73Z" style="fill: #64664d;stroke: #64664d;stroke-miterlimit: 10"/>
    <path d="M1388.42,1082.34l-162.18,533.39h66l161.52-531.2Q1421.05,1083.27,1388.42,1082.34Z" style="fill: #64664d;stroke: #64664d;stroke-miterlimit: 10"/>
    <path d="M1531.75,1088l-160.49,527.78h64.58l159.45-524.37Q1563.51,1089.5,1531.75,1088Z" style="fill: #64664d;stroke: #64664d;stroke-miterlimit: 10"/>
    <path d="M1931.64,1119.1l-151,496.63h60.86l149-490.09Q1961.07,1122.25,1931.64,1119.1Z" style="fill: #64664d;stroke: #64664d;stroke-miterlimit: 10"/>
    <path d="M2066.79,1134.81l-146.24,480.92h53.79l144.21-474.25Q2092.66,1138,2066.79,1134.81Z" style="fill: #64664d;stroke: #64664d;stroke-miterlimit: 10"/>
    <path d="M694.6,1097,536.87,1615.73h71.8l159.2-523.57Q731.21,1094.38,694.6,1097Z" style="fill: #64664d;stroke: #64664d;stroke-miterlimit: 10"/>
    <path d="M1802.22,1106.54l-154.83,509.19h54.17l153.36-504.37Q1828.56,1108.84,1802.22,1106.54Z" style="fill: #64664d;stroke: #64664d;stroke-miterlimit: 10"/>
    <path d="M408.7,1123.34,259,1615.73h53.79l151.56-498.44Q436.51,1120.22,408.7,1123.34Z" style="fill: #64664d;stroke: #64664d;stroke-miterlimit: 10"/>
    <path d="M1672.84,1096.33l-157.93,519.4h53.41l156.77-515.55Q1699,1098.15,1672.84,1096.33Z" style="fill: #64664d;stroke: #64664d;stroke-miterlimit: 10"/>
    <path d="M1256.35,1079.76l-163,536h53.79l162.74-535.21Q1283.12,1080,1256.35,1079.76Z" style="fill: #64664d;stroke: #64664d;stroke-miterlimit: 10"/>
    <path d="M545.86,1109.22l-154,506.51h66l155.83-512.47Q579.73,1106.08,545.86,1109.22Z" style="fill: #64664d;stroke: #64664d;stroke-miterlimit: 10"/>
    <path d="M1116.41,1079.8l-163,535.93h60.86l163.07-536.29Q1146.88,1079.49,1116.41,1079.8Z" style="fill: #64664d;stroke: #64664d;stroke-miterlimit: 10"/>
    <path d="M2194.43,1152l-141,463.76h66l138.17-454.39Q2226,1156.53,2194.43,1152Z" style="fill: #64664d;stroke: #64664d;stroke-miterlimit: 10"/>
    <path d="M982.36,1082.48,820.22,1615.73h54.16L1037,1081.06Q1009.65,1081.66,982.36,1082.48Z" style="fill: #64664d;stroke: #64664d;stroke-miterlimit: 10"/>
    <path d="M0,1181.74v127.32l40.82-134.24Q20.41,1178.22,0,1181.74Z" style="fill: #64664d;stroke: #64664d;stroke-miterlimit: 10"/>
    <polygon points="2384 1615.73 2384 1500.38 2348.92 1615.73 2384 1615.73" style="fill: #64664d;stroke: #64664d;stroke-miterlimit: 10"/>
    <path d="M124,1161.46,0,1569.1v46.63H40L180.72,1152.9Q152.32,1157.06,124,1161.46Z" style="fill: #64664d;stroke: #64664d;stroke-miterlimit: 10"/>
    <path d="M263.31,1141.32,119.06,1615.73h60.85L326.67,1133.1Q295,1137.06,263.31,1141.32Z" style="fill: #64664d;stroke: #64664d;stroke-miterlimit: 10"/>
    <path d="M2384,1181.74q-25.52-4.35-51-8.49l-134.54,442.48h71.42L2384,1240.34Z" style="fill: #64664d;stroke: #64664d;stroke-miterlimit: 10"/>
    <path d="M1595.29,1091.36l-159.45,524.37h79.07l157.93-519.4Q1634.05,1093.63,1595.29,1091.36Z" style="fill: #5e5e48"/>
    <path d="M1725.09,1100.18l-156.77,515.55h79.07l154.83-509.19Q1763.64,1103.15,1725.09,1100.18Z" style="fill: #5e5e48"/>
    <path d="M1854.92,1111.36l-153.36,504.37h79.07l151-496.63Q1893.26,1115,1854.92,1111.36Z" style="fill: #5e5e48"/>
    <path d="M1990.51,1125.64l-149,490.09h79.06l146.24-480.92Q2028.63,1130,1990.51,1125.64Z" style="fill: #5e5e48"/>
    <path d="M2118.55,1141.48l-144.21,474.25h79.07l141-463.76Q2156.47,1146.51,2118.55,1141.48Z" style="fill: #5e5e48"/>
    <path d="M2257.54,1161.34l-138.17,454.39h79.07L2333,1173.25Q2295.24,1167.1,2257.54,1161.34Z" style="fill: #5e5e48"/>
    <path d="M767.87,1092.16l-159.2,523.57h79.06l160.55-528Q808.05,1089.71,767.87,1092.16Z" style="fill: #5e5e48"/>
    <path d="M902.43,1085.31,741.15,1615.73h79.07l162.14-533.25Q942.37,1083.67,902.43,1085.31Z" style="fill: #5e5e48"/>
    <path d="M1037,1081.06,874.38,1615.73h79.07l163-535.93Q1076.66,1080.21,1037,1081.06Z" style="fill: #5e5e48"/>
    <path d="M1177.38,1079.44l-163.07,536.29h79.07l163-536Q1216.84,1079.37,1177.38,1079.44Z" style="fill: #5e5e48"/>
    <path d="M1309.91,1080.52l-162.74,535.21h79.07l162.18-533.39Q1349.15,1081.21,1309.91,1080.52Z" style="fill: #5e5e48"/>
    <path d="M1453.72,1084.53l-161.52,531.2h79.06L1531.75,1088Q1492.71,1086,1453.72,1084.53Z" style="fill: #5e5e48"/>
    <path d="M40.82,1174.82,0,1309.06v260l124-407.64Q82.37,1167.9,40.82,1174.82Z" style="fill: #5e5e48"/>
    <path d="M180.72,1152.9,40,1615.73h79.07l144.25-474.41Q222,1146.86,180.72,1152.9Z" style="fill: #5e5e48"/>
    <path d="M326.67,1133.1,179.91,1615.73H259L408.7,1123.34Q367.66,1128,326.67,1133.1Z" style="fill: #5e5e48"/>
    <path d="M464.33,1117.29,312.77,1615.73h79.07l154-506.51Q505.07,1113,464.33,1117.29Z" style="fill: #5e5e48"/>
    <path d="M613.63,1103.26,457.8,1615.73h79.07L694.6,1097Q654.1,1099.89,613.63,1103.26Z" style="fill: #5e5e48"/>
    <polygon points="2384 1500.38 2384 1240.34 2269.86 1615.73 2348.92 1615.73 2384 1500.38" style="fill: #5e5e48"/>
  </g>
</svg>
