<svg id="landscape" xmlns="http://www.w3.org/2000/svg" viewBox="0 0 2384 1614">
  <title>fond1</title>
  <polygon id="fond1" points="2381.39 727.45 2373.07 697 2366.27 727.45 2350.35 727.45 2342.03 697 2336.28 722.73 2306.26 701.7 2297.33 669 2292.22 691.86 2245.46 659.1 2242.7 649 2241.12 656.06 2226.72 645.98 2216.62 609 2210.84 634.85 2140.92 585.87 2134.67 563 2131.1 578.99 2115.46 568.03 2111.08 552 2108.58 563.21 2058.83 528.36 2052.72 506 2049.23 521.63 1986.66 477.8 1980.71 456 1977.3 471.24 1953.49 454.57 1948.42 436 1945.52 448.98 1899.23 416.55 1890.07 383 1884.82 406.46 1863.74 391.69 1786.84 450.13 1780.8 428 1773.6 460.19 1712.03 506.99 1706.3 486 1699.47 516.53 1647.13 556.31 1640.49 532 1632.59 567.37 1625.25 572.94 1620.62 556 1615.12 580.65 1548.49 631.28 1542.4 609 1535.15 641.42 1514.76 656.92 1512.6 649 1510.03 660.51 1468.89 691.78 1458.82 690.29 1453 669 1448.58 688.79 1423.89 685.16 1419.47 669 1416.12 684.02 1381.72 678.97 1373.53 649 1367.31 676.85 1329.07 671.23 1318.9 634 1311.17 668.6 1267.88 662.24 1264.27 649 1261.52 661.3 1227.86 656.35 1219.57 626 1213.26 654.21 1185.48 650.13 1181.07 634 1177.72 648.99 1154.75 645.61 1133.78 635.41 1125.2 604 1119.71 628.57 1064.05 601.52 1060.63 589 1058.44 598.79 1021.27 580.72 1010.97 543 1004.37 572.5 1000.57 570.65 991.1 536 985.04 563.11 961.13 551.49 958.82 543 957.33 549.64 933.84 538.22 927.77 516 923.89 533.38 914.08 528.61 907.91 506 903.95 523.69 857.96 501.33 848.31 466 842.13 493.63 789.8 468.2 783.74 446 779.86 463.36 736.05 442.07 725.38 403 718.55 433.56 711.91 430.33 708 416 705.49 427.21 652.61 401.5 645.91 377 641.63 396.17 602.21 377 569.33 394.18 562.72 370 555.73 401.29 540.3 409.35 536.65 396 532.79 413.28 487.01 437.2 484.5 428 481.84 439.9 470.82 445.66 464.63 423 458.08 452.31 435.12 464.31 427.38 436 419.19 472.63 398.02 483.7 395.1 473 392 486.84 369.18 498.77 364.06 480 358.63 504.28 333.63 517.34 330.53 506 327.25 520.68 288.86 540.74 282.11 516 274.95 548 256.09 557.86 252.31 544 248.3 561.93 225.23 573.99 222.51 564 219.62 576.92 194.68 589.95 186.5 560 179.08 593.2 176.56 584 172.66 601.46 110.78 633.8 104.55 611 97.96 640.49 87.41 646 84.68 636 81.79 648.94 23.85 679.22 18.87 661 13.61 684.57 0 691.68 0 1614 2384 1614 2384 727.45 2381.39 727.45" style="fill: #b29259"/>
</svg>
