<svg xmlns="http://www.w3.org/2000/svg" viewBox="0 0 2384 1518">
  <title>fond5</title>
  <g id="Calque_2" data-name="Calque 2">
    <g>
      <path d="M1347.72,582.18,1034.66,2454.5h71.56L1419,583.74Q1383.41,582.77,1347.72,582.18Z" style="fill: #5e5e48"/>
      <path d="M1067.54,583.27,754.66,2454.5h71.06l313.1-1872.6Q1103.22,582.4,1067.54,583.27Z" style="fill: #5e5e48"/>
      <path d="M1207.87,581.3,894.66,2454.5h71.06L1278.91,581.39Q1243.44,581.17,1207.87,581.3Z" style="fill: #5e5e48"/>
      <path d="M1770.28,602.76,1460.66,2454.5h71.06L1840.31,608.88Q1805.35,605.63,1770.28,602.76Z" style="fill: #5e5e48"/>
      <path d="M1487.59,586,1175.16,2454.5h76.56L1563.6,589.26Q1525.64,587.39,1487.59,586Z" style="fill: #5e5e48"/>
      <path d="M1631.92,593,1320.66,2454.5h71.06L1702.21,597.57Q1667.09,595.08,1631.92,593Z" style="fill: #5e5e48"/>
      <path d="M499.57,619,192.66,2454.5h71.06L571.78,612.05Q535.72,615.34,499.57,619Z" style="fill: #5e5e48"/>
      <path d="M925.23,588.12,613.16,2454.5h72.56L998.26,585.28Q961.78,586.51,925.23,588.12Z" style="fill: #5e5e48"/>
      <path d="M207.78,653.61.5,1893.29v425L280.44,644Q244.14,648.64,207.78,653.61Z" style="fill: #5e5e48"/>
      <path d="M350.84,635.3,46.66,2454.5h77.06L429.4,626.33Q390.16,630.62,350.84,635.3Z" style="fill: #5e5e48"/>
      <path d="M641.74,606,332.66,2454.5h71.06l310-1854Q677.77,603.06,641.74,606Z" style="fill: #5e5e48"/>
      <path d="M783.46,595.72,472.66,2454.5h71.56l311.5-1863Q819.63,593.43,783.46,595.72Z" style="fill: #5e5e48"/>
      <path d="M64.29,674.46.5,1056v425L137.17,663.57Q100.77,668.85,64.29,674.46Z" style="fill: #5e5e48"/>
      <path d="M1908.14,615.59,1600.66,2454.5h71.56L1978.4,623.32Q1943.32,619.26,1908.14,615.59Z" style="fill: #5e5e48"/>
      <path d="M2184.25,650.77,1882.66,2454.5h71.06L2253.49,661.64Q2218.92,656,2184.25,650.77Z" style="fill: #5e5e48"/>
      <polygon points="2384.5 1127.76 2162.66 2454.5 2234.22 2454.5 2384.5 1555.72 2384.5 1127.76" style="fill: #5e5e48"/>
      <path d="M2046,631.54l-304.81,1823h72.56L2116.94,641Q2081.5,636.06,2046,631.54Z" style="fill: #5e5e48"/>
      <path d="M2384.5,684.5q-31.93-6-64-11.53L2022.66,2454.5h71.06L2384.5,715.42Z" style="fill: #5e5e48"/>
      <polygon points="2384.5 715.42 2093.72 2454.5 2162.66 2454.5 2384.5 1127.76 2384.5 715.42" style="fill: #64664d;stroke: #64664d;stroke-miterlimit: 10;stroke-width: 2px"/>
      <path d="M2253.49,661.64,1953.72,2454.5h68.94L2320.54,673Q2287.06,667.1,2253.49,661.64Z" style="fill: #64664d;stroke: #64664d;stroke-miterlimit: 10;stroke-width: 2px"/>
      <path d="M2116.94,641,1813.72,2454.5h68.94L2184.25,650.77Q2150.64,645.7,2116.94,641Z" style="fill: #64664d;stroke: #64664d;stroke-miterlimit: 10;stroke-width: 2px"/>
      <path d="M1978.4,623.32,1672.22,2454.5h68.94L2046,631.54Q2012.22,627.25,1978.4,623.32Z" style="fill: #64664d;stroke: #64664d;stroke-miterlimit: 10;stroke-width: 2px"/>
      <path d="M1840.31,608.88,1531.72,2454.5h68.94L1908.14,615.59Q1874.26,612.05,1840.31,608.88Z" style="fill: #64664d;stroke: #64664d;stroke-miterlimit: 10;stroke-width: 2px"/>
      <path d="M1702.21,597.57,1391.72,2454.5h68.94L1770.28,602.76Q1736.29,600,1702.21,597.57Z" style="fill: #64664d;stroke: #64664d;stroke-miterlimit: 10;stroke-width: 2px"/>
      <path d="M1563.6,589.26,1251.72,2454.5h68.94L1631.92,593Q1597.8,590.94,1563.6,589.26Z" style="fill: #64664d;stroke: #64664d;stroke-miterlimit: 10;stroke-width: 2px"/>
      <path d="M1419,583.74,1106.22,2454.5h68.94L1487.59,586Q1453.35,584.67,1419,583.74Z" style="fill: #64664d;stroke: #64664d;stroke-miterlimit: 10;stroke-width: 2px"/>
      <path d="M1278.91,581.39,965.72,2454.5h68.94L1347.72,582.18Q1313.36,581.61,1278.91,581.39Z" style="fill: #64664d;stroke: #64664d;stroke-miterlimit: 10;stroke-width: 2px"/>
      <path d="M1138.82,581.9,825.72,2454.5h68.94L1207.87,581.3Q1173.39,581.43,1138.82,581.9Z" style="fill: #64664d;stroke: #64664d;stroke-miterlimit: 10;stroke-width: 2px"/>
      <path d="M998.26,585.28,685.72,2454.5h68.94L1067.54,583.27Q1032.94,584.1,998.26,585.28Z" style="fill: #64664d;stroke: #64664d;stroke-miterlimit: 10;stroke-width: 2px"/>
      <path d="M855.72,591.51l-311.5,1863h68.94L925.23,588.12Q890.51,589.65,855.72,591.51Z" style="fill: #64664d;stroke: #64664d;stroke-miterlimit: 10;stroke-width: 2px"/>
      <path d="M713.72,600.45l-310,1854.05h68.94L783.46,595.72Q748.63,597.93,713.72,600.45Z" style="fill: #64664d;stroke: #64664d;stroke-miterlimit: 10;stroke-width: 2px"/>
      <path d="M571.78,612.05,263.72,2454.5h68.94L641.74,606Q606.79,608.88,571.78,612.05Z" style="fill: #64664d;stroke: #64664d;stroke-miterlimit: 10;stroke-width: 2px"/>
      <path d="M429.4,626.33,123.72,2454.5h68.94L499.57,619Q464.52,622.48,429.4,626.33Z" style="fill: #64664d;stroke: #64664d;stroke-miterlimit: 10;stroke-width: 2px"/>
      <path d="M280.44,644,.5,2318.26V2454.5H46.66L350.84,635.3Q315.68,639.49,280.44,644Z" style="fill: #64664d;stroke: #64664d;stroke-miterlimit: 10;stroke-width: 2px"/>
      <path d="M137.17,663.57.5,1481v412.33L207.78,653.61Q172.5,658.44,137.17,663.57Z" style="fill: #64664d;stroke: #64664d;stroke-miterlimit: 10;stroke-width: 2px"/>
      <path d="M.5,684.5V1056L64.29,674.46Q32.41,679.37.5,684.5Z" style="fill: #64664d;stroke: #64664d;stroke-miterlimit: 10;stroke-width: 2px"/>
    </g>
  </g>
</svg>
