<svg id="landscape" xmlns="http://www.w3.org/2000/svg" xmlns:xlink="http://www.w3.org/1999/xlink" viewBox="0 0 2384 1614">
  <defs>
    <linearGradient id="Dégradé_sans_nom_33" data-name="Dégradé sans nom 33" x1="483.44" y1="1535.27" x2="483.44" y2="991.27" gradientTransform="translate(0.56 -0.27)" gradientUnits="userSpaceOnUse">
      <stop offset="0" stop-color="#323522"/>
      <stop offset="1" stop-color="#585030"/>
    </linearGradient>
  </defs>
  <title>fond6</title>
  <g id="maison1">
    <polygon points="743.39 1360.69 562.99 1406.19 560.57 1136.48 740.97 1090.97 743.39 1360.69" style="fill: #b78e58"/>
    <polygon points="486.96 1372.88 568.46 1407 566.11 1145.61 527.78 1055.97 484.61 1111.48 486.96 1372.88" style="fill: #6a4f36"/>
    <g>
      <polygon points="776.64 1164.41 587.82 1186.88 525.26 1040.11 709.54 1029.07 776.64 1164.41" style="fill: #ac5832"/>
      <polygon points="612.85 1183.75 592.4 1185.85 529.69 1040.81 546.05 1039.66 612.85 1183.75" style="fill: #c1603a"/>
      <polygon points="643.51 1179.72 622.39 1182.71 560.37 1038.55 576.73 1037.41 643.51 1179.72" style="fill: #c1603a"/>
      <polygon points="675.55 1176.55 654.42 1178.66 593.78 1036.26 609.46 1035.13 675.55 1176.55" style="fill: #c1603a"/>
      <polygon points="704.86 1172.54 684.41 1175.53 623.79 1034.91 640.15 1033.76 704.86 1172.54" style="fill: #c1603a"/>
      <polygon points="736.21 1168.5 715.08 1171.49 655.84 1032.63 672.88 1031.48 736.21 1168.5" style="fill: #c1603a"/>
      <polygon points="766.2 1165.37 745.75 1168.35 687.21 1031.26 702.89 1030.13 766.2 1165.37" style="fill: #c1603a"/>
      <polygon points="454.12 1153.56 474.02 1155.28 527.33 1072.02 570.98 1178.34 585.46 1179.59 525.32 1040.12 454.12 1153.56" style="fill: #7b3f24"/>
      <polygon points="561.2 1055.45 546.22 1057.42 541.34 1045.97 555.71 1045.11 561.2 1055.45" style="fill: #c19040"/>
      <polygon points="596.83 1071.82 581.85 1073.79 576.97 1062.34 591.34 1061.48 596.83 1071.82" style="fill: #c19040"/>
      <polygon points="617.05 1119.59 602.06 1121.55 597.18 1110.1 611.55 1109.24 617.05 1119.59" style="fill: #c19040"/>
      <polygon points="654.85 1074.49 639.86 1076.45 634.99 1065.01 649.36 1064.15 654.85 1074.49" style="fill: #c19040"/>
      <polygon points="646.04 1080.86 631.05 1082.82 626.17 1071.38 640.54 1070.51 646.04 1080.86" style="fill: #c19040"/>
      <polygon points="722.39 1073.45 707.4 1075.42 702.52 1063.97 716.89 1063.11 722.39 1073.45" style="fill: #c19040"/>
      <polygon points="688.76 1051.71 673.77 1053.68 668.89 1042.23 683.27 1041.37 688.76 1051.71" style="fill: #c19040"/>
      <polygon points="732.42 1126.71 717.43 1128.68 712.55 1117.23 726.92 1116.37 732.42 1126.71" style="fill: #c19040"/>
      <polygon points="718.91 1142.06 703.92 1144.02 699.05 1132.57 713.42 1131.71 718.91 1142.06" style="fill: #c19040"/>
      <polygon points="647.51 1168.97 632.53 1170.94 627.65 1159.49 642.02 1158.63 647.51 1168.97" style="fill: #c19040"/>
      <polygon points="674.46 1131.17 659.48 1133.13 654.6 1121.68 668.97 1120.82 674.46 1131.17" style="fill: #c19040"/>
      <polygon points="591.29 1138.68 576.3 1140.64 571.43 1129.19 585.8 1128.33 591.29 1138.68" style="fill: #c19040"/>
    </g>
    <polygon points="643.71 1284.43 636.89 1284.52 636.63 1242.48 643.46 1242.39 643.71 1284.43" style="fill: #4a3a21"/>
    <polygon points="700.9 1271.51 694.08 1271.6 693.86 1232.27 700.68 1232.18 700.9 1271.51" style="fill: #4a3a21"/>
  </g>
  <polygon id="sapin3" points="349.5 1535 484.5 991 618.5 1535 349.5 1535" style="fill: url(#Dégradé_sans_nom_33)"/>
</svg>
