<svg xmlns="http://www.w3.org/2000/svg" width="479" height="498" viewBox="0 0 479 498" version="1.1">
	<path d="M 226.500 0.596 C 224.850 0.826, 218.325 1.722, 212 2.588 C 183.422 6.499, 152.006 17.295, 126.323 32.030 C 58.995 70.659, 14.512 135.235, 2.350 212 C -0.240 228.347, -0.240 269.653, 2.350 286 C 9.104 328.631, 26.778 369.680, 52.497 402.470 C 53.977 404.357, 54.858 403.624, 73.521 384.979 C 84.234 374.276, 93 365.196, 93 364.802 C 93 364.408, 90.494 360.353, 87.430 355.792 C 75.352 337.810, 63.512 309.427, 59.568 289 C 58.666 284.325, 57.710 279.488, 57.445 278.250 L 56.962 276 139.481 276 L 222 276 222 358.519 L 222 441.038 219.750 440.555 C 218.512 440.290, 213.675 439.334, 209 438.432 C 187.754 434.330, 159.509 422.363, 141 409.621 L 131.500 403.081 111.721 422.791 L 91.941 442.500 94.721 444.773 C 101.232 450.097, 115.491 459.715, 125.127 465.282 C 151.005 480.233, 181.107 490.756, 212 495.650 C 228.347 498.240, 269.653 498.240, 286 495.650 C 332.571 488.272, 374.044 469.401, 410 439.229 C 423.909 427.557, 443.444 406.577, 450.368 395.874 L 452.067 393.248 441.784 388.933 C 436.128 386.559, 424.319 381.596, 415.543 377.904 L 399.587 371.191 391.338 379.846 L 383.090 388.500 383.050 358 L 383.009 327.500 394.301 321.784 C 426.875 305.294, 449.782 283.700, 463.763 256.303 C 469.824 244.425, 473.149 234.908, 476.098 221 C 479.230 206.222, 479.263 179.245, 476.167 164.070 C 474.997 158.333, 473.641 153.241, 473.155 152.755 C 472.302 151.902, 423.357 165.381, 421.727 166.918 C 421.301 167.319, 421.639 170.906, 422.477 174.889 C 424.475 184.388, 424.438 202.134, 422.401 211.303 C 418.855 227.265, 407.619 245.222, 393.866 256.909 C 379.663 268.978, 359.461 279.991, 339.607 286.486 L 329.500 289.793 329.243 357.767 L 328.986 425.741 319.723 429.286 C 309.220 433.307, 295.361 437.349, 286.500 438.977 C 283.200 439.583, 279.488 440.295, 278.250 440.558 L 276 441.038 276 249 L 276 56.962 278.250 57.445 C 279.488 57.710, 284.325 58.666, 289 59.568 C 308.879 63.406, 335.221 74.154, 352.773 85.589 C 366.251 94.370, 372.499 99.441, 385.596 112.225 L 397.692 124.033 424.096 113.880 C 438.618 108.295, 450.666 103.584, 450.870 103.410 C 451.613 102.775, 437.485 85.537, 428.615 76.257 C 391.216 37.127, 341.219 11.152, 286.500 2.423 C 276.977 0.904, 233.750 -0.412, 226.500 0.596 M 107.396 117.250 C 84.488 140.931, 65.782 176.815, 59.568 209 C 58.666 213.675, 57.710 218.512, 57.445 219.750 L 56.962 222 139.481 222 L 222 222 222 166.500 L 222 111 167.721 111 L 113.442 111 107.396 117.250" stroke="none" fill="black" fill-rule="evenodd"/>
</svg>