<svg id="Calque_2" data-name="Calque 2" xmlns="http://www.w3.org/2000/svg" viewBox="0 0 500 500">
  <title>logo_black</title>
  <path d="M384,390.24V328c129-57,90-175,90-175l-52,15c26,96-92,123-92,123V426.77a192.9,192.9,0,0,1-53,15.35V57.88a193.7,193.7,0,0,1,121.22,67l53.64-20.64A248.67,248.67,0,0,0,250,1C112.48,1,1,112.48,1,250A248,248,0,0,0,55.21,405.1l39.21-39.2A192.93,192.93,0,0,1,57.87,277H223V442.13a193.14,193.14,0,0,1-90.6-37.84L93.24,443.45A249,249,0,0,0,452.8,394.5l-52.36-22A194.56,194.56,0,0,1,384,390.24ZM223,223H57.88a193.48,193.48,0,0,1,55.78-111H223Z"/>
</svg>
