<svg id="Calque_1" data-name="Calque 1" xmlns="http://www.w3.org/2000/svg" xmlns:xlink="http://www.w3.org/1999/xlink" viewBox="0 0 1920 1080"><defs><symbol id="Star" data-name="Star" viewBox="0 0 4 4"><circle cx="2" cy="2" r="2" style="fill:#fff"/></symbol></defs><title>stars3</title><use width="4" height="4" transform="translate(344.34 169.12) scale(1.37)" xlink:href="#Star"/><use width="4" height="4" transform="translate(356.92 290.19) scale(1.2)" xlink:href="#Star"/><use width="4" height="4" transform="translate(652.56 822.62) scale(1.13)" xlink:href="#Star"/><use width="4" height="4" transform="translate(1027.83 577.97) scale(1.01)" xlink:href="#Star"/><use width="4" height="4" transform="translate(1111.78 280.77)" xlink:href="#Star"/><use width="4" height="4" transform="translate(1341.75 310.69) scale(1.01)" xlink:href="#Star"/><use width="4" height="4" transform="translate(1572.37 649.48)" xlink:href="#Star"/><use width="4" height="4" transform="translate(1619.39 790.46)" xlink:href="#Star"/><use width="4" height="4" transform="translate(1735.86 639.38)" xlink:href="#Star"/><use width="4" height="4" transform="translate(1611.32 381.95) scale(1.02)" xlink:href="#Star"/><use width="4" height="4" transform="translate(1590.59 431.5)" xlink:href="#Star"/><use width="4" height="4" transform="translate(1225.62 925.03) scale(1.01)" xlink:href="#Star"/><use width="4" height="4" transform="translate(882.94 887.98) scale(1.14)" xlink:href="#Star"/><use width="4" height="4" transform="translate(825.58 626.49) scale(1.23)" xlink:href="#Star"/><use width="4" height="4" transform="translate(876.74 371.51)" xlink:href="#Star"/><use width="4" height="4" transform="translate(661.04 255.66)" xlink:href="#Star"/><use width="4" height="4" transform="translate(569.18 475.98) scale(1.03)" xlink:href="#Star"/><use width="4" height="4" transform="translate(408.48 916.04) scale(1.25)" xlink:href="#Star"/><use width="4" height="4" transform="translate(375.9 922.07) scale(1.45)" xlink:href="#Star"/><use width="4" height="4" transform="translate(153.18 757.56)" xlink:href="#Star"/><use width="4" height="4" transform="translate(143.01 502.72)" xlink:href="#Star"/><use width="4" height="4" transform="translate(134.8 323.21)" xlink:href="#Star"/><use width="4" height="4" transform="translate(138.89 202.59)" xlink:href="#Star"/><use width="4" height="4" transform="translate(923.87 145.54)" xlink:href="#Star"/><use width="4" height="4" transform="translate(1113.53 102.67)" xlink:href="#Star"/><use width="4" height="4" transform="translate(1394.91 35.29)" xlink:href="#Star"/><use width="4" height="4" transform="translate(1594.91 157.51)" xlink:href="#Star"/><use width="4" height="4" transform="translate(1596.62 301.97) scale(1.14)" xlink:href="#Star"/><use width="4" height="4" transform="translate(1745.79 487.9) scale(1.17)" xlink:href="#Star"/><use width="4" height="4" transform="translate(1776.48 1004.08)" xlink:href="#Star"/><use width="4" height="4" transform="translate(1755.75 1051.65)" xlink:href="#Star"/><use width="4" height="4" transform="translate(1429.33 761.65) scale(1.11)" xlink:href="#Star"/><use width="4" height="4" transform="translate(1313.34 651.53)" xlink:href="#Star"/><use width="4" height="4" transform="translate(1196.94 608.54) scale(1.03)" xlink:href="#Star"/></svg>