<svg id="Calque_1" data-name="Calque 1" xmlns="http://www.w3.org/2000/svg" xmlns:xlink="http://www.w3.org/1999/xlink" viewBox="0 0 1920 1080"><defs><symbol id="Star" data-name="Star" viewBox="0 0 4 4"><circle cx="2" cy="2" r="2" style="fill:#fff"/></symbol></defs><title>stars1</title><circle cx="1334.7" cy="1073.93" r="3.5" style="fill:#e8e8e8"/><use width="4" height="4" transform="translate(101.23 135.38) scale(1.21)" xlink:href="#Star"/><use width="4" height="4" transform="translate(327.04 169.29) scale(1.48)" xlink:href="#Star"/><use width="4" height="4" transform="translate(417.67 192.36) scale(1.27)" xlink:href="#Star"/><use width="4" height="4" transform="translate(499.42 372.67) scale(1.03)" xlink:href="#Star"/><use width="4" height="4" transform="translate(625.94 505.8) scale(1.05)" xlink:href="#Star"/><use width="4" height="4" transform="translate(956.16 474.36) scale(1.28)" xlink:href="#Star"/><use width="4" height="4" transform="translate(1040.49 370.4) scale(1.08)" xlink:href="#Star"/><use width="4" height="4" transform="translate(1056.55 216.18) scale(1.42)" xlink:href="#Star"/><use width="4" height="4" transform="translate(797.29 235.61) scale(1.05)" xlink:href="#Star"/><use width="4" height="4" transform="translate(605.37 417.37) scale(1.13)" xlink:href="#Star"/><use width="4" height="4" transform="translate(434.19 652.81) scale(1.06)" xlink:href="#Star"/><use width="4" height="4" transform="translate(294.26 670.9) scale(1.27)" xlink:href="#Star"/><use width="4" height="4" transform="translate(155.38 513.98) scale(1.14)" xlink:href="#Star"/><use width="4" height="4" transform="translate(189.27 313.32)" xlink:href="#Star"/><use width="4" height="4" transform="translate(254.18 376.42) scale(1.13)" xlink:href="#Star"/><use width="4" height="4" transform="translate(364.53 714.33) scale(1.1)" xlink:href="#Star"/><use width="4" height="4" transform="translate(607.69 839.04) scale(1.04)" xlink:href="#Star"/><use width="4" height="4" transform="translate(907.88 805.09)" xlink:href="#Star"/><use width="4" height="4" transform="translate(1153.09 699.97)" xlink:href="#Star"/><use width="4" height="4" transform="translate(1165.41 453.92)" xlink:href="#Star"/><use width="4" height="4" transform="translate(1191.65 329.24) scale(1.13)" xlink:href="#Star"/><use width="4" height="4" transform="translate(1550.95 380.85) scale(1.1)" xlink:href="#Star"/><use width="4" height="4" transform="translate(1630.24 597.57) scale(1.06)" xlink:href="#Star"/><use width="4" height="4" transform="translate(1753.54 689.52) scale(1.03)" xlink:href="#Star"/><use width="4" height="4" transform="translate(1797.69 410.92)" xlink:href="#Star"/><use width="4" height="4" transform="translate(1752.84 233.67) scale(1.16)" xlink:href="#Star"/><use width="4" height="4" transform="translate(1546.82 119.09) scale(1.04)" xlink:href="#Star"/><use width="4" height="4" transform="translate(1357.33 135.35)" xlink:href="#Star"/><use width="4" height="4" transform="translate(1512.13 327.44)" xlink:href="#Star"/><use width="4" height="4" transform="translate(1645.01 557.88) scale(1.1)" xlink:href="#Star"/><use width="4" height="4" transform="translate(1520.04 796.61) scale(1.19)" xlink:href="#Star"/><use width="4" height="4" transform="translate(1138.78 745.01)" xlink:href="#Star"/><use width="4" height="4" transform="translate(1169.98 507.96)" xlink:href="#Star"/><use width="4" height="4" transform="translate(1343.27 509.54) scale(1.03)" xlink:href="#Star"/><use width="4" height="4" transform="translate(1511.4 764.39) scale(1.25)" xlink:href="#Star"/><use width="4" height="4" transform="translate(1612.35 862.08)" xlink:href="#Star"/><use width="4" height="4" transform="translate(1736.88 895.18)" xlink:href="#Star"/><use width="4" height="4" transform="translate(1738.99 859.35)" xlink:href="#Star"/><use width="4" height="4" transform="translate(1484.33 953.39) scale(1.21)" xlink:href="#Star"/><use width="4" height="4" transform="translate(1230.5 940.73) scale(1.14)" xlink:href="#Star"/><use width="4" height="4" transform="translate(1132.09 765.05)" xlink:href="#Star"/><use width="4" height="4" transform="translate(972.78 585.43) scale(1.25)" xlink:href="#Star"/><use width="4" height="4" transform="translate(887.58 553.54) scale(1.7)" xlink:href="#Star"/><use width="4" height="4" transform="translate(838.08 782.18) scale(1.06)" xlink:href="#Star"/><use width="4" height="4" transform="translate(750.95 882.9) scale(1.01)" xlink:href="#Star"/><use width="4" height="4" transform="translate(601.46 913.48) scale(1.1)" xlink:href="#Star"/><use width="4" height="4" transform="translate(355.08 917.08) scale(1.26)" xlink:href="#Star"/><use width="4" height="4" transform="translate(265.52 911.32) scale(1.57)" xlink:href="#Star"/><use width="4" height="4" transform="translate(227.41 939.99) scale(1.86)" xlink:href="#Star"/><use width="4" height="4" transform="translate(172.03 795.84) scale(1.01)" xlink:href="#Star"/><use width="4" height="4" transform="translate(276.53 565.24) scale(1.02)" xlink:href="#Star"/><use width="4" height="4" transform="translate(324.07 493.6) scale(1.01)" xlink:href="#Star"/><use width="4" height="4" transform="translate(272.78 411.91) scale(1.17)" xlink:href="#Star"/><use width="4" height="4" transform="translate(174.16 365.39) scale(1.02)" xlink:href="#Star"/><use width="4" height="4" transform="translate(139.21 313.79) scale(1.03)" xlink:href="#Star"/><use width="4" height="4" transform="translate(92.16 268.88) scale(1.11)" xlink:href="#Star"/><use width="4" height="4" transform="translate(69.51 227.63) scale(1.1)" xlink:href="#Star"/><use width="4" height="4" transform="translate(54.78 135.46) scale(1.24)" xlink:href="#Star"/><use width="4" height="4" transform="translate(73.66 81.01) scale(1.38)" xlink:href="#Star"/><use width="4" height="4" transform="translate(209.73 71.87) scale(1.03)" xlink:href="#Star"/><use width="4" height="4" transform="translate(422.1 71.85) scale(1.01)" xlink:href="#Star"/><use width="4" height="4" transform="translate(583.18 72) scale(1.02)" xlink:href="#Star"/><use width="4" height="4" transform="translate(781.19 44.71)" xlink:href="#Star"/><use width="4" height="4" transform="translate(1181.53 45.25)" xlink:href="#Star"/><use width="4" height="4" transform="translate(1249.02 155.73)" xlink:href="#Star"/><use width="4" height="4" transform="translate(1288.03 317.19) scale(1.06)" xlink:href="#Star"/><use width="4" height="4" transform="translate(1141.9 505.88)" xlink:href="#Star"/><use width="4" height="4" transform="translate(831.61 380.67) scale(1.11)" xlink:href="#Star"/><use width="4" height="4" transform="translate(717.63 164.14)" xlink:href="#Star"/><use width="4" height="4" transform="translate(783.3 78.5)" xlink:href="#Star"/><use width="4" height="4" transform="translate(966.53 105.85) scale(1.24)" xlink:href="#Star"/><use width="4" height="4" transform="translate(998.79 206.16) scale(1.29)" xlink:href="#Star"/><use width="4" height="4" transform="translate(946.21 339.68) scale(1.07)" xlink:href="#Star"/><use width="4" height="4" transform="translate(806.77 638.36) scale(1.3)" xlink:href="#Star"/><use width="4" height="4" transform="translate(705.73 831.08) scale(1.02)" xlink:href="#Star"/><use width="4" height="4" transform="translate(662.88 960.7) scale(1.12)" xlink:href="#Star"/><use width="4" height="4" transform="translate(980.41 963.94) scale(1.34)" xlink:href="#Star"/><use width="4" height="4" transform="translate(1218.97 924.4) scale(1.18)" xlink:href="#Star"/><use width="4" height="4" transform="translate(1294.1 935.88) scale(1.03)" xlink:href="#Star"/><use width="4" height="4" transform="translate(1060.91 1007.65) scale(1.02)" xlink:href="#Star"/><use width="4" height="4" transform="translate(543.89 884.42) scale(1.1)" xlink:href="#Star"/><use width="4" height="4" transform="translate(393.4 863.17) scale(1.23)" xlink:href="#Star"/><use width="4" height="4" transform="translate(321.44 916.91) scale(1.22)" xlink:href="#Star"/><use width="4" height="4" transform="translate(230.88 981.47) scale(1.39)" xlink:href="#Star"/><use width="4" height="4" transform="translate(156.13 947.15) scale(1.44)" xlink:href="#Star"/><use width="4" height="4" transform="translate(106 853.21) scale(1.1)" xlink:href="#Star"/><use width="4" height="4" transform="translate(47.26 679.84)" xlink:href="#Star"/><use width="4" height="4" transform="translate(67.74 599.9)" xlink:href="#Star"/><use width="4" height="4" transform="translate(556.61 648.83) scale(1.07)" xlink:href="#Star"/><use width="4" height="4" transform="translate(989.46 751.69)" xlink:href="#Star"/><use width="4" height="4" transform="translate(1634.57 724.43) scale(1.13)" xlink:href="#Star"/><use width="4" height="4" transform="translate(1673.77 638.39) scale(1.12)" xlink:href="#Star"/><use width="4" height="4" transform="translate(1669.59 354.32)" xlink:href="#Star"/><use width="4" height="4" transform="translate(1767.08 141.62) scale(1.01)" xlink:href="#Star"/><use width="4" height="4" transform="translate(1816.88 154.21)" xlink:href="#Star"/><use width="4" height="4" transform="translate(1809.57 422.8)" xlink:href="#Star"/><use width="4" height="4" transform="translate(1799.14 708.17)" xlink:href="#Star"/><use width="4" height="4" transform="translate(1798.93 839.01)" xlink:href="#Star"/><use width="4" height="4" transform="translate(1820.91 988.14)" xlink:href="#Star"/><use width="4" height="4" transform="translate(1808.14 1021.81)" xlink:href="#Star"/><use width="4" height="4" transform="translate(1504.39 966.8) scale(1.18)" xlink:href="#Star"/><use width="4" height="4" transform="translate(1373.16 804.48) scale(1.06)" xlink:href="#Star"/><use width="4" height="4" transform="translate(1297.38 595.08) scale(1.46)" xlink:href="#Star"/><use width="4" height="4" transform="translate(1200.09 573.67)" xlink:href="#Star"/></svg>