<svg id="Calque_1" data-name="Calque 1" xmlns="http://www.w3.org/2000/svg" xmlns:xlink="http://www.w3.org/1999/xlink" viewBox="0 0 1920 1080"><defs><symbol id="Star" data-name="Star" viewBox="0 0 4 4"><circle cx="2" cy="2" r="2" style="fill:#fff"/></symbol></defs><title>stars2</title><use width="4" height="4" transform="translate(182.94 91.2)" xlink:href="#Star"/><use width="4" height="4" transform="translate(213.23 205.5) scale(1.17)" xlink:href="#Star"/><use width="4" height="4" transform="translate(864.76 479.28)" xlink:href="#Star"/><use width="4" height="4" transform="translate(1009.56 520.2)" xlink:href="#Star"/><use width="4" height="4" transform="translate(1107.76 778.1) scale(1.02)" xlink:href="#Star"/><use width="4" height="4" transform="translate(823.83 583.82)" xlink:href="#Star"/><use width="4" height="4" transform="translate(877.05 162.52) scale(1.09)" xlink:href="#Star"/><use width="4" height="4" transform="translate(1473.1 454.84)" xlink:href="#Star"/><use width="4" height="4" transform="translate(1458.72 624.39) scale(1.02)" xlink:href="#Star"/><use width="4" height="4" transform="translate(1816.14 814.59)" xlink:href="#Star"/><use width="4" height="4" transform="translate(1677.19 458.78)" xlink:href="#Star"/><use width="4" height="4" transform="translate(1477.11 309.75)" xlink:href="#Star"/><use width="4" height="4" transform="translate(1224.15 325.93)" xlink:href="#Star"/><use width="4" height="4" transform="translate(1581.05 211.79)" xlink:href="#Star"/><use width="4" height="4" transform="translate(1818.34 477.38)" xlink:href="#Star"/><use width="4" height="4" transform="translate(1695.55 796.39) scale(1.12)" xlink:href="#Star"/><use width="4" height="4" transform="translate(1542.61 996.28)" xlink:href="#Star"/><use width="4" height="4" transform="translate(1533.82 1018.18)" xlink:href="#Star"/><use width="4" height="4" transform="translate(1056.78 861.93) scale(1.03)" xlink:href="#Star"/><use width="4" height="4" transform="translate(942.43 289.4)" xlink:href="#Star"/><use width="4" height="4" transform="translate(1077.05 182.99) scale(1.04)" xlink:href="#Star"/><use width="4" height="4" transform="translate(771.07 115.6)" xlink:href="#Star"/><use width="4" height="4" transform="translate(478.52 140.11)" xlink:href="#Star"/><use width="4" height="4" transform="translate(470.6 563.42)" xlink:href="#Star"/><use width="4" height="4" transform="translate(411.61 888.5)" xlink:href="#Star"/><use width="4" height="4" transform="translate(109.58 767.36)" xlink:href="#Star"/><use width="4" height="4" transform="translate(172.76 551.45)" xlink:href="#Star"/><use width="4" height="4" transform="translate(358.47 361.16)" xlink:href="#Star"/><use width="4" height="4" transform="translate(541.98 676.1)" xlink:href="#Star"/><use width="4" height="4" transform="translate(697.13 796.45) scale(1.06)" xlink:href="#Star"/><use width="4" height="4" transform="translate(896.87 759.6) scale(1.08)" xlink:href="#Star"/><use width="4" height="4" transform="translate(628.23 281.29) scale(1.05)" xlink:href="#Star"/><use width="4" height="4" transform="translate(511.49 244.78) scale(1.01)" xlink:href="#Star"/><use width="4" height="4" transform="translate(1175.14 669.73)" xlink:href="#Star"/><use width="4" height="4" transform="translate(1330.3 888.82)" xlink:href="#Star"/><use width="4" height="4" transform="translate(1562.83 908.85)" xlink:href="#Star"/><use width="4" height="4" transform="translate(1483.04 757.48) scale(1.02)" xlink:href="#Star"/><use width="4" height="4" transform="translate(1264.5 166.14) scale(1.27)" xlink:href="#Star"/><use width="4" height="4" transform="translate(1656.83 179.03)" xlink:href="#Star"/><use width="4" height="4" transform="translate(1787.45 262.94)" xlink:href="#Star"/><use width="4" height="4" transform="translate(1699.78 557)" xlink:href="#Star"/><use width="4" height="4" transform="translate(1666.89 683.01)" xlink:href="#Star"/><use width="4" height="4" transform="translate(1675.34 712.66) scale(1.06)" xlink:href="#Star"/><use width="4" height="4" transform="translate(1599.41 784.2)" xlink:href="#Star"/><use width="4" height="4" transform="translate(1236.19 839.8) scale(1.02)" xlink:href="#Star"/><use width="4" height="4" transform="translate(1234.97 581.52)" xlink:href="#Star"/><use width="4" height="4" transform="translate(1230.38 426.16)" xlink:href="#Star"/><use width="4" height="4" transform="translate(964.53 724.83) scale(1.04)" xlink:href="#Star"/><use width="4" height="4" transform="translate(948.35 962.48)" xlink:href="#Star"/><use width="4" height="4" transform="translate(656.57 966.35)" xlink:href="#Star"/><use width="4" height="4" transform="translate(556.42 923.31)" xlink:href="#Star"/><use width="4" height="4" transform="translate(609.74 651.41)" xlink:href="#Star"/><use width="4" height="4" transform="translate(631.67 497.91)" xlink:href="#Star"/><use width="4" height="4" transform="translate(270.88 561.49)" xlink:href="#Star"/><use width="4" height="4" transform="translate(150.77 924.78)" xlink:href="#Star"/><use width="4" height="4" transform="translate(150.94 998.61)" xlink:href="#Star"/><use width="4" height="4" transform="translate(74.81 851.19)" xlink:href="#Star"/><use width="4" height="4" transform="translate(127.43 512.32)" xlink:href="#Star"/><use width="4" height="4" transform="translate(123.03 373.63)" xlink:href="#Star"/><use width="4" height="4" transform="translate(150.82 362.96)" xlink:href="#Star"/><use width="4" height="4" transform="translate(542.18 385.66)" xlink:href="#Star"/><use width="4" height="4" transform="translate(671.37 502.06)" xlink:href="#Star"/><use width="4" height="4" transform="translate(1015.89 681.67)" xlink:href="#Star"/><use width="4" height="4" transform="translate(1097.5 479.16)" xlink:href="#Star"/><use width="4" height="4" transform="translate(542.58 168.96)" xlink:href="#Star"/><use width="4" height="4" transform="translate(530.2 104.88)" xlink:href="#Star"/><use width="4" height="4" transform="translate(660.91 103.23)" xlink:href="#Star"/><use width="4" height="4" transform="translate(1193.21 581.48)" xlink:href="#Star"/><use width="4" height="4" transform="translate(1271.18 783.95) scale(1.05)" xlink:href="#Star"/><use width="4" height="4" transform="translate(1036.13 901.48)" xlink:href="#Star"/><use width="4" height="4" transform="translate(831.85 860.08) scale(1.01)" xlink:href="#Star"/><use width="4" height="4" transform="translate(374.78 722.94)" xlink:href="#Star"/><use width="4" height="4" transform="translate(1873.17 951.81)" xlink:href="#Star"/><use width="4" height="4" transform="translate(1873.51 859.64)" xlink:href="#Star"/><use width="4" height="4" transform="translate(1883.72 667.34)" xlink:href="#Star"/><use width="4" height="4" transform="translate(1801.58 73.06)" xlink:href="#Star"/><use width="4" height="4" transform="translate(1154.7 76.66)" xlink:href="#Star"/><use width="4" height="4" transform="translate(899.69 21.53)" xlink:href="#Star"/><use width="4" height="4" transform="translate(311.68 130)" xlink:href="#Star"/><use width="4" height="4" transform="translate(35.82 252.83)" xlink:href="#Star"/><use width="4" height="4" transform="translate(109.63 1039.71)" xlink:href="#Star"/><use width="4" height="4" transform="translate(1.2 922.8)" xlink:href="#Star"/><use width="4" height="4" transform="translate(852.44 1066.49)" xlink:href="#Star"/><use width="4" height="4" transform="translate(1487.21 7.57)" xlink:href="#Star"/><use width="4" height="4" transform="translate(1905.97 334.51)" xlink:href="#Star"/></svg>