<svg xmlns="http://www.w3.org/2000/svg" xmlns:xlink="http://www.w3.org/1999/xlink" viewBox="0 0 2388 2395">
  <defs>
    <linearGradient id="Dégradé_sans_nom_6" data-name="Dégradé sans nom 6" x1="1193.5" y1="954" x2="1193.5" y2="846" gradientUnits="userSpaceOnUse">
      <stop offset="0" stop-color="#d3d372"/>
      <stop offset="0.04" stop-color="#b7b667"/>
      <stop offset="0.1" stop-color="#98975b"/>
      <stop offset="0.17" stop-color="#7e7b51"/>
      <stop offset="0.24" stop-color="#686549"/>
      <stop offset="0.33" stop-color="#585443"/>
      <stop offset="0.43" stop-color="#4c493e"/>
      <stop offset="0.58" stop-color="#46423c"/>
      <stop offset="1" stop-color="#44403b"/>
    </linearGradient>
    <linearGradient id="Dégradé_sans_nom_6-2" x1="1193.5" y1="827" x2="1193.5" y2="719" xlink:href="#Dégradé_sans_nom_6"/>
    <linearGradient id="Dégradé_sans_nom_6-3" x1="1193.5" y1="702" x2="1193.5" y2="594" xlink:href="#Dégradé_sans_nom_6"/>
    <linearGradient id="Dégradé_sans_nom_6-4" x1="1193.5" y1="577" x2="1193.5" y2="469" xlink:href="#Dégradé_sans_nom_6"/>
    <linearGradient id="Dégradé_sans_nom_6-5" x1="1194.5" y1="452" x2="1194.5" y2="344" xlink:href="#Dégradé_sans_nom_6"/>
    <linearGradient id="Dégradé_sans_nom_6-6" x1="1194.5" y1="327" x2="1194.5" y2="219" xlink:href="#Dégradé_sans_nom_6"/>
    <linearGradient id="Dégradé_sans_nom_6-7" x1="1194" y1="1016" x2="1194" y2="908" xlink:href="#Dégradé_sans_nom_6"/>
    <linearGradient id="Dégradé_sans_nom_6-8" x1="1195" y1="390" x2="1195" y2="282" xlink:href="#Dégradé_sans_nom_6"/>
    <linearGradient id="Dégradé_sans_nom_6-9" x1="1194" y1="515" x2="1194" y2="407" xlink:href="#Dégradé_sans_nom_6"/>
    <linearGradient id="Dégradé_sans_nom_6-10" x1="1194" y1="892" x2="1194" y2="784" xlink:href="#Dégradé_sans_nom_6"/>
    <linearGradient id="Dégradé_sans_nom_6-11" x1="1194" y1="765" x2="1194" y2="657" xlink:href="#Dégradé_sans_nom_6"/>
    <linearGradient id="Dégradé_sans_nom_6-12" x1="1194" y1="640" x2="1194" y2="532" xlink:href="#Dégradé_sans_nom_6"/>
    <linearGradient id="Dégradé_sans_nom_146" data-name="Dégradé sans nom 146" x1="1194.5" y1="261" x2="1194.5" y2="19" gradientUnits="userSpaceOnUse">
      <stop offset="0" stop-color="#44403b"/>
      <stop offset="0.21" stop-color="#44403b"/>
      <stop offset="0.31" stop-color="#44403b" stop-opacity="0.65"/>
      <stop offset="0.42" stop-color="#44403b" stop-opacity="0.36"/>
      <stop offset="0.56" stop-color="#44403b" stop-opacity="0.16"/>
      <stop offset="0.72" stop-color="#44403b" stop-opacity="0.04"/>
      <stop offset="1" stop-color="#44403b" stop-opacity="0"/>
    </linearGradient>
    <radialGradient id="Dégradé_sans_nom_97" data-name="Dégradé sans nom 97" cx="1194" cy="1200" r="1194" gradientUnits="userSpaceOnUse">
      <stop offset="0" stop-color="#fcee21" stop-opacity="0.5"/>
      <stop offset="1" stop-opacity="0"/>
    </radialGradient>
  </defs>
  <title>lantern</title>
  <g id="Calque_3" data-name="Calque 3">
    <rect x="1107.76" y="1108" width="172.48" height="248" style="fill: #44403b"/>
    <ellipse cx="1194" cy="1108" rx="86.24" ry="92" style="fill: #44403b"/>
    <circle cx="1194" cy="1016" r="30" style="fill: #44403b"/>
    <rect x="1202.26" y="1131" width="53.21" height="189" rx="3.99" style="fill: #d3d372"/>
    <rect x="1132.53" y="1131" width="49.54" height="189" rx="4.07" style="fill: #d3d372"/>
    <path d="M1193.5,846h0c-13,0-23.5,11.6-23.5,25.9v56.2c0,14.3,10.52,25.9,23.5,25.9h0c13,0,23.5-11.6,23.5-25.9V871.9C1217,857.6,1206.48,846,1193.5,846Zm11.5,74.39c0,7-5.15,12.67-11.5,12.67s-11.5-5.67-11.5-12.67V879.61c0-7,5.15-12.67,11.5-12.67s11.5,5.67,11.5,12.67Z" style="fill: url(#Dégradé_sans_nom_6)"/>
    <path d="M1193.5,719h0c-13,0-23.5,11.6-23.5,25.9v56.2c0,14.3,10.52,25.9,23.5,25.9h0c13,0,23.5-11.6,23.5-25.9V744.9C1217,730.6,1206.48,719,1193.5,719Zm11.5,74.39c0,7-5.15,12.67-11.5,12.67s-11.5-5.67-11.5-12.67V752.61c0-7,5.15-12.67,11.5-12.67s11.5,5.67,11.5,12.67Z" style="fill: url(#Dégradé_sans_nom_6-2)"/>
    <path d="M1193.5,594h0c-13,0-23.5,11.6-23.5,25.9v56.2c0,14.3,10.52,25.9,23.5,25.9h0c13,0,23.5-11.6,23.5-25.9V619.9C1217,605.6,1206.48,594,1193.5,594Zm11.5,74.39c0,7-5.15,12.67-11.5,12.67s-11.5-5.67-11.5-12.67V627.61c0-7,5.15-12.67,11.5-12.67s11.5,5.67,11.5,12.67Z" style="fill: url(#Dégradé_sans_nom_6-3)"/>
    <path d="M1193.5,469h0c-13,0-23.5,11.6-23.5,25.9v56.2c0,14.3,10.52,25.9,23.5,25.9h0c13,0,23.5-11.6,23.5-25.9V494.9C1217,480.6,1206.48,469,1193.5,469Zm11.5,74.39c0,7-5.15,12.67-11.5,12.67s-11.5-5.67-11.5-12.67V502.61c0-7,5.15-12.67,11.5-12.67s11.5,5.67,11.5,12.67Z" style="fill: url(#Dégradé_sans_nom_6-4)"/>
    <path d="M1194.5,344h0c-13,0-23.5,11.6-23.5,25.9v56.2c0,14.3,10.52,25.9,23.5,25.9h0c13,0,23.5-11.6,23.5-25.9V369.9C1218,355.6,1207.48,344,1194.5,344Zm11.5,74.39c0,7-5.15,12.67-11.5,12.67s-11.5-5.67-11.5-12.67V377.61c0-7,5.15-12.67,11.5-12.67s11.5,5.67,11.5,12.67Z" style="fill: url(#Dégradé_sans_nom_6-5)"/>
    <path d="M1194.5,219h0c-13,0-23.5,11.6-23.5,25.9v56.2c0,14.3,10.52,25.9,23.5,25.9h0c13,0,23.5-11.6,23.5-25.9V244.9C1218,230.6,1207.48,219,1194.5,219Zm11.5,74.39c0,7-5.15,12.67-11.5,12.67s-11.5-5.67-11.5-12.67V252.61c0-7,5.15-12.67,11.5-12.67s11.5,5.67,11.5,12.67Z" style="fill: url(#Dégradé_sans_nom_6-6)"/>
    <rect x="1185" y="908" width="18" height="108" rx="9" style="fill: url(#Dégradé_sans_nom_6-7)"/>
    <rect x="1186" y="282" width="18" height="108" rx="9" style="fill: url(#Dégradé_sans_nom_6-8)"/>
    <rect x="1185" y="407" width="18" height="108" rx="9" style="fill: url(#Dégradé_sans_nom_6-9)"/>
    <rect x="1185" y="784" width="18" height="108" rx="9" style="fill: url(#Dégradé_sans_nom_6-10)"/>
    <rect x="1185" y="657" width="18" height="108" rx="9" style="fill: url(#Dégradé_sans_nom_6-11)"/>
    <rect x="1185" y="532" width="18" height="108" rx="9" style="fill: url(#Dégradé_sans_nom_6-12)"/>
    <rect x="1094" y="1334" width="200" height="22" style="fill: #44403b"/>
    <rect x="1083" y="1092" width="222" height="25" style="fill: #44403b"/>
    <path d="M1204,87.21V28a9,9,0,0,0-18,0V86.75c-8.78,3.76-15,13.15-15,24.15v56.2c0,11,6.22,20.39,15,24.15V252a9,9,0,0,0,18,0V190.79c8.24-4,14-13.11,14-23.69V110.9C1218,100.32,1212.24,91.23,1204,87.21Zm2,72.18a13.55,13.55,0,0,1-2,7.14V162a9,9,0,0,0-18,0v5.9a13.33,13.33,0,0,1-3-8.51V118.61a13.33,13.33,0,0,1,3-8.51V118a9,9,0,0,0,18,0v-6.53a13.55,13.55,0,0,1,2,7.14Z" style="fill: url(#Dégradé_sans_nom_146)"/>
    <circle cx="1194" cy="1200" r="1194" style="fill: url(#Dégradé_sans_nom_97)"/>
  </g>
</svg>
